<?xml version="1.0" standalone="no"?>
<!DOCTYPE svg PUBLIC "-//W3C//DTD SVG 20010904//EN"
 "http://www.w3.org/TR/2001/REC-SVG-20010904/DTD/svg10.dtd">
<svg version="1.0" xmlns="http://www.w3.org/2000/svg"
 width="500.000000pt" height="500.000000pt" viewBox="0 0 500.000000 500.000000"
 preserveAspectRatio="xMidYMid meet">

<g transform="translate(0.000000,500.000000) scale(0.100000,-0.100000)"
fill="#000000" stroke="none">
<path d="M2203 4954 c-387 -47 -778 -195 -1100 -416 -809 -557 -1212 -1532
-1032 -2502 89 -479 331 -938 679 -1286 390 -390 884 -632 1450 -712 141 -19
496 -16 640 6 462 71 851 237 1205 514 90 71 326 307 397 397 306 390 479 828
529 1340 14 140 6 392 -15 540 -79 542 -325 1035 -702 1410 -407 405 -929 655
-1496 715 -132 14 -418 11 -555 -6z m1960 -1641 c32 -164 59 -311 60 -326 2
-25 -4 -30 -67 -57 -38 -16 -72 -28 -74 -25 -5 4 -120 580 -124 623 -3 20 7
27 62 51 36 16 70 29 75 30 6 1 36 -133 68 -296z m-553 258 c0 -11 -9 -23 -20
-26 -11 -4 -20 -15 -20 -26 0 -18 4 -20 30 -14 24 5 30 3 30 -10 0 -10 -20
-25 -52 -39 -87 -38 -98 -40 -98 -18 0 11 9 22 20 25 18 5 20 11 14 46 -6 40
-6 41 37 60 56 25 59 25 59 2z m299 -342 c60 -315 62 -341 23 -377 -25 -23
-265 -132 -291 -132 -7 0 -31 95 -31 125 0 7 40 29 90 49 49 21 92 41 95 46 3
4 -15 115 -41 245 -25 130 -44 244 -42 252 3 16 129 75 139 64 4 -3 30 -126
58 -272z m-249 188 c0 -2 18 -97 40 -211 22 -114 40 -215 40 -224 0 -12 -23
-26 -70 -46 -39 -16 -72 -27 -74 -25 -4 4 -70 341 -82 415 l-6 41 63 26 c58
24 89 32 89 24z m-212 -389 c6 -35 20 -119 32 -187 28 -160 23 -174 -77 -222
-37 -18 -85 -33 -106 -34 -24 0 -42 -7 -48 -17 -12 -22 -154 -80 -187 -76 -18
2 -34 -4 -47 -19 -26 -30 -231 -115 -267 -111 -18 2 -36 -6 -55 -24 -17 -16
-150 -76 -350 -158 l-321 -132 -12 -45 c-20 -80 -67 -173 -87 -173 -24 1 -133
27 -140 34 -3 3 -1 12 5 19 7 7 23 44 37 80 l25 67 -43 0 c-48 0 -113 27 -141
59 -63 70 6 321 100 366 127 60 224 0 260 -163 9 -42 18 -78 19 -80 6 -7 96
40 102 53 3 9 -15 124 -41 257 -26 132 -45 242 -44 244 2 2 35 16 73 33 63 27
71 28 77 13 4 -9 26 -114 48 -232 23 -118 43 -217 45 -219 2 -1 46 84 98 191
99 206 121 234 189 244 55 9 65 -8 95 -154 16 -84 31 -136 40 -139 17 -7 95
22 125 47 l23 18 -32 159 c-17 87 -30 159 -29 160 0 1 37 4 81 8 l80 7 23
-128 c13 -71 27 -133 32 -138 15 -15 59 3 65 27 3 12 -7 88 -23 169 -33 168
-38 155 68 160 l65 3 22 -125 c26 -141 38 -162 77 -136 14 9 26 25 26 35 0 16
-39 221 -55 288 -5 24 9 27 116 31 l46 2 11 -62z m-2435 -751 c3 -24 9 -50 12
-58 4 -12 -9 -23 -55 -42 -34 -15 -65 -27 -70 -27 -4 0 -11 21 -15 46 -3 26
-9 53 -12 60 -3 10 12 22 48 39 77 34 85 33 92 -18z m486 -117 c12 -63 21
-145 21 -181 0 -77 -28 -195 -67 -281 l-27 -60 -45 5 c-25 4 -62 11 -83 17
l-36 10 23 43 c70 127 87 290 47 462 -11 49 -20 90 -19 91 7 6 153 19 158 15
4 -4 16 -58 28 -121z m-650 38 c6 -26 11 -51 11 -56 0 -5 -28 -21 -62 -36 -47
-20 -63 -24 -69 -14 -9 13 -23 107 -18 113 12 11 115 51 120 46 4 -3 11 -27
18 -53z m249 -82 c18 -17 29 -54 52 -164 34 -162 36 -192 15 -232 -15 -30 -83
-67 -202 -110 -106 -38 -136 -12 -168 147 -9 46 -14 87 -11 91 10 17 125 92
129 85 3 -5 10 -40 17 -80 17 -95 20 -99 59 -79 17 9 31 23 31 30 0 15 -31
169 -35 174 -1 1 -50 -18 -109 -42 -104 -44 -106 -44 -111 -23 -17 84 -22 118
-16 121 12 7 236 99 261 106 33 11 60 3 88 -24z"/>
<path d="M2507 2498 c-32 -61 -56 -112 -54 -115 8 -8 105 38 123 58 14 15 16
30 11 80 -4 33 -10 66 -14 74 -5 9 -28 -24 -66 -97z"/>
<path d="M1817 2307 c-39 -60 -40 -126 -1 -141 50 -19 74 8 74 85 0 74 -41
105 -73 56z"/>
</g>
</svg>
